<svg width="198mm" height="197mm" version="1.1" viewBox="0 0 198 197" xmlns="http://www.w3.org/2000/svg"><rect width="198" height="197" fill="#fff"/><path d="m167 140c0 20-34 36-78 36-49 0-82-16-82-36v-84c0 20 34 37 82 37 42 0 78-17 78-37z" opacity=".1"/><ellipse cx="87" cy="55" rx="80" ry="37" opacity=".05"/><path d="m55 174 34-34 21 35c-19 2-37 3-55-1z" fill="#248" opacity=".2"/>
 <g fill="none" stroke="#000" stroke-width=".7"><ellipse cx="87" cy="140" rx="80" ry="37"/><ellipse cx="87" cy="55" rx="80" ry="37"/><path d="m7 55v85m160-85v85m-78 50 0-183m46 87-98 98m-35-52 188 0"/></g>
 <g stroke-width="1.5"><path d="m103 176c-18 1-34 1-48-2" fill="none" stroke="#00f"/><path d="m110 175v-63" stroke="#080"/><path d="m89 140-32 32" stroke="#f00"/></g>
 <path d="m39.3 185.5-5.7 10 10-5.7l-3.5-.7m52-176-3-11-3 11l3-2m96 132l11-3-11-3 2 3"/><path d="m60.7 164-5.7 10l10-5.7-3.5-.7" fill="#f00"/><path d="m99.4 179.2 10.6-4.3-11.3-1.7 2.3 2.7" fill="#00f"/><path d="m113 122-3-11-3 11 3-2" fill="#080"/><circle cx="110" cy="111" r="3"/><circle cx="89" cy="140" r="2"/>
 <g font-family="Times" font-size="17px" font-style="italic"><text x="29" y="187">x</text><text x="174" y="151">y</text><text x="93" y="13">z</text><text x="95" y="117" font-style="normal">P</text><text x="114" y="151" fill="#080">z</text><text x="66" y="154" fill="#f00">ρ</text><text x="72" y="188" fill="#00f">φ</text></g></svg>