<svg width="154mm" height="150mm" version="1.1" viewBox="0 0 154 150" xmlns="http://www.w3.org/2000/svg">
 <rect width="154" height="150" fill="#fff"/><path d="m97 133 37-37v-71m-117 37 37-37h80l-37 37m-80 71h80v-71l-80 0zm37-37v-87m-46 133 46-46h93" fill="none" stroke="#000"/><path d="m12 142-10 6 6-10v4m133-49 11 3-11 3 2-3m-92-83 3-11 3 11l-3-2"/><circle cx="54" cy="96" r="2"/><circle cx="54" cy="25" r="2"/><circle cx="134" cy="25" r="2"/><circle cx="97" cy="62" r="2"/><circle cx="134" cy="96" r="2"/><circle cx="17" cy="62" r="2"/><circle cx="97" cy="133" r="2"/><circle cx="17" cy="133" r="2"/>
 <g font-family="Times" font-size="14px" font-style="italic"><text x="6" y="134">B</text><text x="41" y="99">O</text><text x="123" y="94">C</text><text x="91" y="58">A</text><text x="40" y="28">D</text>
 <g fill="#00f"><text x="140" y="110">Y</text><text x="57" y="16">Z</text><text x="11" y="148">X</text></g>
 <g fill="#080"><text x="47" y="74">z</text><text x="39" y="118">x</text><text x="85" y="104">y</text></g></g></svg>