<svg class="typst-doc" viewBox="0 0 53.327555555555556 11.589999999999998" width="53.327555555555556pt" height="11.589999999999998pt" xmlns="http://www.w3.org/2000/svg" xmlns:xlink="http://www.w3.org/1999/xlink" xmlns:h5="http://www.w3.org/1999/xhtml">
    <g>
        <g class="typst-group">
            <g>
                <g class="typst-text" transform="matrix(1 0 0 -1 1 8.049999999999999)">
                    <use xlink:href="#gC5751360BE45FD4DB2C7AEDA7CAAD23E" x="0" y="0" fill="#000000" fill-rule="nonzero"/>
                </g>
                <g class="typst-text" transform="matrix(1 0 0 -1 14.537777777777778 8.049999999999999)">
                    <use xlink:href="#gAE53D23EE55AB2A28455969FF7EAE4F1" x="0" y="0" fill="#000000" fill-rule="nonzero"/>
                </g>
                <g class="typst-text" transform="matrix(1 0 0 -1 25.095555555555556 8.049999999999999)">
                    <use xlink:href="#g524A8C33DF93D5752000F17615CAFEF1" x="0" y="0" fill="#000000" fill-rule="nonzero"/>
                </g>
                <g class="typst-text" transform="matrix(1 0 0 -1 30.895555555555553 8.049999999999999)">
                    <use xlink:href="#g545D269542CEF03DC07EF07899B55F4C" x="0" y="0" fill="#000000" fill-rule="nonzero"/>
                </g>
                <g class="typst-text" transform="matrix(1 0 0 -1 39.98555555555556 8.049999999999999)">
                    <use xlink:href="#gE701BF12EB7478DA05B885C88EC68798" x="0" y="0" fill="#000000" fill-rule="nonzero"/>
                </g>
                <g class="typst-text" transform="matrix(1 0 0 -1 45.98555555555556 10.52)">
                    <use xlink:href="#gC4ECC06A2C6DBEE313F49690C97B0565" x="0" y="0" fill="#000000" fill-rule="nonzero"/>
                </g>
            </g>
        </g>
    </g>
    <defs id="glyph">
        <symbol id="gC5751360BE45FD4DB2C7AEDA7CAAD23E" overflow="visible">
            <path d="M 0 0m 9.559999 6.7999997 c -0.18999958 0 -0.8399992 0.03000021 -1.0299997 0.03000021 c -0.14999962 0 -0.22999954 -0.07999992 -0.22999954 -0.23000002 c 0 -0.099999905 0.059999466 -0.1500001 0.17999935 -0.15999985 c 0.3699999 -0.010000229 0.5500002 -0.12000036 0.5500002 -0.34000015 c 0 -0.059999943 -0.03999996 -0.15999985 -0.119999886 -0.30999994 l -2.62 -4.54 l -0.3499999 4.77 c -0.03999996 0.35999966 0.19999981 0.42000008 0.6499996 0.42000008 c 0.21000004 0 0.30999994 0.07999992 0.30999994 0.23999977 c 0 0.099999905 -0.059999943 0.1500001 -0.18999958 0.1500001 c -0.22000027 0 -0.99000025 -0.03000021 -1.21 -0.03000021 c -0.19000006 0 -0.8499999 0.03000021 -1.04 0.03000021 c -0.1500001 0 -0.23000002 -0.07999992 -0.23000002 -0.24000025 c 0 -0.099999905 0.089999676 -0.14999962 0.27999973 -0.14999962 c 0.30999994 0 0.47000027 -0.07000017 0.48000002 -0.21000004 l 0.059999943 -0.75 l -2.4399998 -4.23 l -0.3599999 4.8799996 c -0.029999971 0.25 0.38999987 0.31000042 0.71000004 0.31000042 c 0.16999984 0 0.25 0.07999992 0.25 0.23999977 c 0 0.099999905 -0.06000018 0.1500001 -0.18000007 0.1500001 c -0.22000003 0 -1 -0.03000021 -1.22 -0.03000021 c -0.18999994 0 -0.84999996 0.03000021 -1.04 0.03000021 c -0.14999998 0 -0.21999997 -0.07999992 -0.21999997 -0.23000002 c 0 -0.11000013 0.099999964 -0.15999985 0.28999996 -0.15999985 c 0.42000002 0 0.45999998 -0.01999998 0.47999996 -0.32000017 l 0.45000005 -6.0499997 c 0.00999999 -0.19 0.07999992 -0.29 0.19999993 -0.29 c 0.13 0.02000001 0.17999995 0.049999997 0.2600001 0.2 c 0.00999999 0.01 0.00999999 0.02 0.00999999 0.03 l 2.8499997 4.93 l 0.36000013 -4.87 c 0.010000229 -0.19 0.07999992 -0.29 0.20000029 -0.29 c 0.099999905 0 0.18999958 0.07000001 0.26999998 0.21 l 3.2599993 5.63 c 0.27000046 0.48999977 0.46000004 0.77 1.0700006 0.8200002 c 0.17999935 0.01999998 0.22999954 0.069999695 0.22999954 0.23999977 c 0 0.099999905 -0.05000019 0.1500001 -0.15999985 0.1500001 c -0.14000034 0 -0.6199999 -0.03000021 -0.7600002 -0.03000021 Z "/>
        </symbol>
        <symbol id="gAE53D23EE55AB2A28455969FF7EAE4F1" overflow="visible">
            <path d="M 0 0m 6.98 3.6699998 h -6.1800003 c -0.15999997 0 -0.23999995 -0.07999992 -0.23999995 -0.23000002 c 0 -0.14999986 0.07999998 -0.22999978 0.23999995 -0.22999978 h 6.1800003 c 0.15999985 0 0.23999977 0.07999992 0.23999977 0.22999978 c 0 0.120000124 -0.11000013 0.23000002 -0.23999977 0.23000002 Z m 0 -1.8799999 h -6.1800003 c -0.15999997 0 -0.23999995 -0.08000004 -0.23999995 -0.23000002 c 0 -0.14999998 0.07999998 -0.23000002 0.23999995 -0.23000002 h 6.1800003 c 0.15999985 0 0.23999977 0.08000004 0.23999977 0.23000002 c 0 0.13 -0.11000013 0.23000002 -0.23999977 0.23000002 Z "/>
        </symbol>
        <symbol id="g524A8C33DF93D5752000F17615CAFEF1" overflow="visible">
            <path d="M 0 0m 5.52 6.33 c 0 0.44000006 -0.4300003 0.7199998 -0.9000001 0.7199998 c -0.6199999 0 -1.05 -0.4000001 -1.28 -1.19 c -0.049999952 -0.17999983 -0.16000009 -0.6899996 -0.31999993 -1.5299997 h -0.6500001 c -0.22000003 0 -0.32999992 -0.010000229 -0.32999992 -0.21999979 c 0 -0.11000013 0.099999905 -0.16000032 0.30999994 -0.16000032 h 0.60000014 l -0.73 -3.87 c -0.11000013 -0.57 -0.21000004 -0.98999995 -0.30000007 -1.27 c -0.120000005 -0.37 -0.28999996 -0.56000006 -0.51 -0.56000006 c -0.14999998 0 -0.26999998 0.04000008 -0.38 0.110000014 c 0.32000005 0.05000007 0.48000002 0.24000001 0.48000002 0.56000006 c 0 0.25999993 -0.13 0.38999993 -0.39999998 0.38999993 c -0.34000003 0 -0.58000004 -0.29999995 -0.58000004 -0.6399999 c 0 -0.44000006 0.41000003 -0.72 0.88 -0.72 c 0.25 0 0.48000002 0.100000024 0.66999996 0.30999994 c 0.31999993 0.33000004 0.56999993 0.8 0.75 1.4300001 c 0.109999895 0.39 0.21000004 0.77 0.27999997 1.15 l 0.5799999 3.11 h 0.81999993 c 0.23000002 0 0.32999992 0.00999999 0.32999992 0.24000025 c 0 0.089999676 -0.099999905 0.13999987 -0.2999997 0.13999987 h -0.77 c 0.059999943 0.40999985 0.34000015 1.9200001 0.42999983 2.1100001 c 0.099999905 0.20999956 0.24000025 0.30999994 0.42000008 0.30999994 c 0.1500001 0 0.2800002 -0.03999996 0.38999987 -0.11000013 c -0.30999994 -0.07000017 -0.4699998 -0.25 -0.4699998 -0.55999994 c 0 -0.26000023 0.13000011 -0.38999987 0.4000001 -0.38999987 c 0.33999968 0 0.5799999 0.2999997 0.5799999 0.63999987 Z "/>
        </symbol>
        <symbol id="g545D269542CEF03DC07EF07899B55F4C" overflow="visible">
            <path d="M 0 0m 8.639999 6.83 c -0.18999958 0 -0.80999947 -0.03000021 -0.9999995 -0.03000021 c -0.19000006 0 -0.8200002 0.03000021 -1.0100002 0.03000021 c -0.14999962 0 -0.21999979 -0.07999992 -0.21999979 -0.24000025 c 0 -0.089999676 0.07000017 -0.13999987 0.21999979 -0.14999962 c 0.42000008 0 0.6300001 -0.13000011 0.6300001 -0.39000034 c 0 -0.059999943 -0.009999752 -0.12999964 -0.01999998 -0.19999981 l -1.0799999 -4.2799997 l -2.15 5.05 c -0.07999992 0.19000006 -0.099999905 0.21000004 -0.3499999 0.21000004 h -1.3299999 c -0.24000001 0 -0.32999992 -0.01999998 -0.32999992 -0.24000025 c 0 -0.099999905 0.109999895 -0.14999962 0.31999993 -0.14999962 c 0.42000008 0 0.6300001 -0.010000229 0.6400001 -0.04000044 l -1.33 -5.2999997 c -0.09000003 -0.39000005 -0.32000005 -0.61 -0.68 -0.68000007 c -0.26 -0.030000001 -0.56 0.00999999 -0.56 -0.26999998 c 0 -0.099999994 0.060000002 -0.14999999 0.17000002 -0.14999999 c 0.18 0 0.8 0.03 0.98999995 0.03 c 0.19000006 0 0.8299999 -0.03 1.02 -0.03 c 0.1500001 0 0.22000003 0.08 0.22000003 0.24 c 0 0.08999999 -0.07999992 0.14 -0.24000001 0.14999999 c -0.4100001 0.00999999 -0.61 0.13999999 -0.61 0.39 c 0 0.050000012 0.00999999 0.120000005 0.029999971 0.22000003 l 1.2900001 5.1099997 l 2.4999998 -5.8999996 c 0.059999943 -0.13999999 0.14000034 -0.21 0.23000002 -0.21 c 0.09000015 0 0.1500001 0.08 0.19000006 0.24 l 1.3899999 5.5 c 0.13000011 0.5100002 0.41000032 0.69000006 1.0299997 0.7000003 c 0.14000034 0.009999752 0.21000004 0.089999676 0.21000004 0.25 c -0.029999733 0.089999676 -0.03999996 0.13999987 -0.17000008 0.13999987 Z "/>
        </symbol>
        <symbol id="gE701BF12EB7478DA05B885C88EC68798" overflow="visible">
            <path d="M 0 0m 5.37 1.37 c -0.23000002 -0.79 -0.55999994 -1.19 -0.9699998 -1.19 c -0.13000011 0 -0.20000029 0.10000001 -0.20000029 0.29000002 c 0 0.14000002 0.059999943 0.36999997 0.1800003 0.67999995 c 0.39999962 1.09 0.5999999 1.8100001 0.5999999 2.1799998 c 0 0.6999998 -0.47000027 1.0900002 -1.1700001 1.0900002 c -0.5899999 0 -1.0999999 -0.26000023 -1.51 -0.7900002 c -0.07999992 0.43999982 -0.42999995 0.7900002 -0.93999994 0.7900002 c -0.56000006 0 -0.78000003 -0.5200002 -0.92 -0.97000027 c -0.099999994 -0.31999993 -0.15 -0.51 -0.15 -0.5799999 c 0 -0.089999914 0.050000012 -0.13999987 0.16 -0.13999987 c 0.050000012 0 0.07999998 0.00999999 0.110000014 0.029999971 c 0.050000012 0.089999914 0.07999998 0.15999985 0.089999974 0.23000002 c 0.18 0.76 0.40999997 1.1400001 0.67999995 1.1400001 c 0.18000007 0 0.26999998 -0.1400001 0.26999998 -0.4200003 c 0 -0.12999988 -0.049999952 -0.39999986 -0.15999997 -0.80999994 l -0.56999993 -2.27 c -0.030000031 -0.13 -0.09000003 -0.39 -0.09000003 -0.44 c 0 -0.2 0.110000014 -0.3 0.33000004 -0.3 c 0.18999994 0 0.32999992 0.1 0.39999998 0.3 c 0.01999998 0.049999997 0.07999992 0.29999998 0.18999994 0.72999996 l 0.21000004 0.89 l 0.30000007 1.1400001 c 0.109999895 0.22999978 0.27999997 0.4599998 0.49 0.6999998 c 0.28999996 0.32000017 0.64999986 0.48000026 1.0799999 0.48000026 c 0.33000016 0 0.49 -0.22000027 0.49 -0.6500001 c 0 -0.3800001 -0.21000004 -1.1400001 -0.6400001 -2.2800002 c -0.06999993 -0.17999995 -0.099999905 -0.32999992 -0.099999905 -0.45999992 c 0 -0.49 0.3699999 -0.85 0.85000014 -0.85 c 0.43999958 0 0.78999996 0.25 1.04 0.75 c 0.18999958 0.39999998 0.28999996 0.66999996 0.28999996 0.79999995 c 0 0.09000003 -0.05000019 0.13999999 -0.16000032 0.13999999 c -0.029999733 0 -0.17999983 -0.089999914 -0.17999983 -0.20999992 Z "/>
        </symbol>
        <symbol id="gC4ECC06A2C6DBEE313F49690C97B0565" overflow="visible">
            <path d="M 0 0m 5.089 3.094 c -0.1960001 0 -0.40600014 -0.1960001 -0.40600014 -0.39199996 c 0 -0.062999964 0.0630002 -0.16100001 0.18900013 -0.29400015 c 0.12599993 -0.1329999 0.18900013 -0.2939999 0.18900013 -0.46899998 c 0 -0.15399992 -0.08400011 -0.45499992 -0.25200033 -0.90999997 c -0.1329999 -0.38500005 -0.44799995 -0.85400003 -0.8959999 -0.85400003 c -0.3570001 0 -0.53200006 0.19600001 -0.53200006 0.588 c 0 0.42700005 0.29400015 1.379 0.42000008 1.8410001 c 0.020999908 0.09100008 0.035000086 0.14700007 0.035000086 0.16799998 c 0 0.1400001 -0.1190002 0.24500012 -0.25900006 0.24500012 c -0.17499995 0 -0.27999997 -0.07000017 -0.32200003 -0.21700001 c -0.09800005 -0.34300017 -0.329 -1.2530001 -0.34299994 -1.3090001 c -0.07000017 -0.27999997 -0.10500002 -0.49700004 -0.11199999 -0.64400005 c 0.020999908 -0.11899996 -0.042000055 -0.26599997 -0.18900013 -0.45499998 c -0.11899996 -0.14700001 -0.26600003 -0.21700001 -0.44099998 -0.21700001 c -0.39900005 0 -0.595 0.20300001 -0.595 0.609 c 0 0.245 0.11199999 0.64400005 0.329 1.197 c 0.09800005 0.25199997 0.14700007 0.41999996 0.14700007 0.4970001 c 0 0.35699987 -0.32200003 0.60899997 -0.6860001 0.60899997 c -0.33599997 0 -0.602 -0.16799998 -0.791 -0.49699998 c -0.16099998 -0.27999997 -0.245 -0.47600007 -0.245 -0.5810001 c 0 -0.07700002 0.049000025 -0.11899996 0.14700001 -0.11899996 c 0.07700002 0 0.12599999 0.041999936 0.14700001 0.1329999 c 0.16799998 0.546 0.40600002 0.819 0.7210001 0.819 c 0.09799993 0 0.14699996 -0.06999993 0.14699996 -0.21700001 c 0 -0.09799981 -0.027999997 -0.22399998 -0.09099996 -0.385 c -0.12600005 -0.3219999 -0.21700001 -0.574 -0.2800001 -0.7559999 c -0.07700002 -0.245 -0.11899996 -0.44800007 -0.11899996 -0.6090001 c 0 -0.651 0.462 -0.945 1.1409999 -0.945 c 0.31500006 0 0.5740001 0.147 0.78400016 0.43400002 c 0.17499995 -0.28700003 0.49 -0.43400002 0.9590001 -0.43400002 c 0.44799995 0 0.8119998 0.273 1.085 0.82600003 c 0.20300007 0.39900005 0.48999977 1.246 0.48999977 1.7639999 c 0 0.29400015 -0.12599993 0.5740001 -0.3709998 0.5740001 Z "/>
        </symbol>
    </defs>
</svg>
