<svg class="typst-doc" viewBox="0 0 250.56088888888888 71.4804" width="250.56088888888888pt" height="71.4804pt" xmlns="http://www.w3.org/2000/svg" xmlns:xlink="http://www.w3.org/1999/xlink" xmlns:h5="http://www.w3.org/1999/xhtml">
    <g>
        <g class="typst-group">
            <g>
                <g class="typst-text" transform="matrix(1 0 0 -1 1 38.2402)">
                    <use xlink:href="#g9F9969AD4D2A5F18B0AA9DB19423EBEC" x="0" y="0" fill="#000000" fill-rule="nonzero"/>
                </g>
                <g class="typst-text" transform="matrix(1 0 0 -1 11.697777777777777 38.2402)">
                    <use xlink:href="#gAE53D23EE55AB2A28455969FF7EAE4F1" x="0" y="0" fill="#000000" fill-rule="nonzero"/>
                </g>
                <g class="typst-text" transform="matrix(1 0 0 -1 22.255555555555556 38.2402)">
                    <use xlink:href="#gF94E8D995006C12A7B1032AA6E2921F5" x="0" y="0" fill="#000000" fill-rule="nonzero"/>
                </g>
                <g class="typst-group">
                    <g>
                        <g class="typst-text" transform="matrix(1 0 0 -1 26.145555555555557 38.2402)">
                            <use xlink:href="#g211B171E5E5269C5CCF791032D7E5E6B" x="0" y="0" fill="#000000" fill-rule="nonzero"/>
                        </g>
                        <g class="typst-text" transform="matrix(1 0 0 -1 31.86555555555556 40.71020000000001)">
                            <use xlink:href="#g4B21B677717776B012499AEBFDA13185" x="0" y="0" fill="#000000" fill-rule="nonzero"/>
                        </g>
                        <g class="typst-text" transform="matrix(1 0 0 -1 41.40855555555556 38.2402)">
                            <use xlink:href="#g211B171E5E5269C5CCF791032D7E5E6B" x="0" y="0" fill="#000000" fill-rule="nonzero"/>
                        </g>
                        <g class="typst-text" transform="matrix(1 0 0 -1 47.12855555555556 40.71020000000001)">
                            <use xlink:href="#g2F1687F62A646D26B3CA30D34A61B3FD" x="0" y="0" fill="#000000" fill-rule="nonzero"/>
                        </g>
                        <g class="typst-text" transform="matrix(1 0 0 -1 56.67155555555556 38.2402)">
                            <use xlink:href="#g21D3513E4F76B03E2240B179060BED0E" x="0" y="0" fill="#000000" fill-rule="nonzero"/>
                        </g>
                        <g class="typst-text" transform="matrix(1 0 0 -1 69.43155555555555 38.2402)">
                            <use xlink:href="#g211B171E5E5269C5CCF791032D7E5E6B" x="0" y="0" fill="#000000" fill-rule="nonzero"/>
                        </g>
                        <g class="typst-text" transform="matrix(1 0 0 -1 75.15155555555556 40.71020000000001)">
                            <use xlink:href="#g15C61848AE33161FCF603BFA8DC01A8B" x="0" y="0" fill="#000000" fill-rule="nonzero"/>
                        </g>
                    </g>
                </g>
                <g class="typst-text" transform="matrix(1 0 0 -1 82.76055555555554 38.2402)">
                    <use xlink:href="#g4476E285DC1EB1C2F92DABBE6141CA00" x="0" y="0" fill="#000000" fill-rule="nonzero"/>
                </g>
                <g class="typst-text" transform="matrix(1 0 0 -1 88.31722222222221 70.4804)">
                    <use xlink:href="#gDEF79BD8CE7A7AE756B4B62449958962" x="0" y="0" fill="#000000" fill-rule="nonzero"/>
                    <use xlink:href="#g61D406AB69EB57B05FA3B585AC7AAE3D" x="0" y="14.576747220924801" fill="#000000" fill-rule="nonzero"/>
                    <use xlink:href="#g61D406AB69EB57B05FA3B585AC7AAE3D" x="0" y="18.995110415693603" fill="#000000" fill-rule="nonzero"/>
                    <use xlink:href="#g61D406AB69EB57B05FA3B585AC7AAE3D" x="0" y="23.413473610462404" fill="#000000" fill-rule="nonzero"/>
                    <use xlink:href="#g61D406AB69EB57B05FA3B585AC7AAE3D" x="0" y="27.831836805231205" fill="#000000" fill-rule="nonzero"/>
                    <use xlink:href="#g61D406AB69EB57B05FA3B585AC7AAE3D" x="0" y="32.25020000000001" fill="#000000" fill-rule="nonzero"/>
                    <use xlink:href="#g61D406AB69EB57B05FA3B585AC7AAE3D" x="0" y="36.66856319476881" fill="#000000" fill-rule="nonzero"/>
                    <use xlink:href="#g61D406AB69EB57B05FA3B585AC7AAE3D" x="0" y="41.08692638953761" fill="#000000" fill-rule="nonzero"/>
                    <use xlink:href="#g61D406AB69EB57B05FA3B585AC7AAE3D" x="0" y="45.50528958430641" fill="#000000" fill-rule="nonzero"/>
                    <use xlink:href="#g61D406AB69EB57B05FA3B585AC7AAE3D" x="0" y="49.92365277907521" fill="#000000" fill-rule="nonzero"/>
                    <use xlink:href="#g1E20F1C167A5CC91B4FBC9D116F18DD" x="0" y="54.530400000000014" fill="#000000" fill-rule="nonzero"/>
                </g>
                <g class="typst-group">
                    <g>
                        <g class="typst-text" transform="matrix(1 0 0 -1 97.06722222222221 11.638199999999996)">
                            <use xlink:href="#gC5751360BE45FD4DB2C7AEDA7CAAD23E" x="0" y="0" fill="#000000" fill-rule="nonzero"/>
                        </g>
                        <g class="typst-text" transform="matrix(1 0 0 -1 105.50722222222223 14.108199999999995)">
                            <use xlink:href="#g4B21B677717776B012499AEBFDA13185" x="0" y="0" fill="#000000" fill-rule="nonzero"/>
                        </g>
                        <g class="typst-text" transform="matrix(1 0 0 -1 109.49022222222222 14.108199999999995)">
                            <use xlink:href="#g945B72F385E24FAC1FE2485431B6004D" x="0" y="0" fill="#000000" fill-rule="nonzero"/>
                        </g>
                        <g class="typst-text" transform="matrix(1 0 0 -1 111.86322222222222 14.108199999999995)">
                            <use xlink:href="#g4B21B677717776B012499AEBFDA13185" x="0" y="0" fill="#000000" fill-rule="nonzero"/>
                        </g>
                        <g class="typst-text" transform="matrix(1 0 0 -1 104.23672222222221 24.939199999999992)">
                            <use xlink:href="#g3C0099DA3FBDC54B123012856B59EFE1" x="0" y="0" fill="#000000" fill-rule="nonzero"/>
                        </g>
                        <g class="typst-text" transform="matrix(1 0 0 -1 104.23672222222221 38.2402)">
                            <use xlink:href="#g3C0099DA3FBDC54B123012856B59EFE1" x="0" y="0" fill="#000000" fill-rule="nonzero"/>
                        </g>
                        <g class="typst-text" transform="matrix(1 0 0 -1 105.64672222222221 51.541199999999996)">
                            <use xlink:href="#g3E55C7F8B58FC158324CA12C9FF8E7C5" x="0" y="0" fill="#000000" fill-rule="nonzero"/>
                        </g>
                        <g class="typst-text" transform="matrix(1 0 0 -1 104.23672222222221 63.5012)">
                            <use xlink:href="#g3C0099DA3FBDC54B123012856B59EFE1" x="0" y="0" fill="#000000" fill-rule="nonzero"/>
                        </g>
                        <g class="typst-text" transform="matrix(1 0 0 -1 121.40622222222221 11.638199999999996)">
                            <use xlink:href="#gC5751360BE45FD4DB2C7AEDA7CAAD23E" x="0" y="0" fill="#000000" fill-rule="nonzero"/>
                        </g>
                        <g class="typst-text" transform="matrix(1 0 0 -1 129.84622222222222 14.108199999999995)">
                            <use xlink:href="#g4B21B677717776B012499AEBFDA13185" x="0" y="0" fill="#000000" fill-rule="nonzero"/>
                        </g>
                        <g class="typst-text" transform="matrix(1 0 0 -1 133.8292222222222 14.108199999999995)">
                            <use xlink:href="#g945B72F385E24FAC1FE2485431B6004D" x="0" y="0" fill="#000000" fill-rule="nonzero"/>
                        </g>
                        <g class="typst-text" transform="matrix(1 0 0 -1 136.20222222222222 14.108199999999995)">
                            <use xlink:href="#g2F1687F62A646D26B3CA30D34A61B3FD" x="0" y="0" fill="#000000" fill-rule="nonzero"/>
                        </g>
                        <g class="typst-text" transform="matrix(1 0 0 -1 121.40622222222221 24.939199999999992)">
                            <use xlink:href="#gC5751360BE45FD4DB2C7AEDA7CAAD23E" x="0" y="0" fill="#000000" fill-rule="nonzero"/>
                        </g>
                        <g class="typst-text" transform="matrix(1 0 0 -1 129.84622222222222 27.409199999999995)">
                            <use xlink:href="#g2F1687F62A646D26B3CA30D34A61B3FD" x="0" y="0" fill="#000000" fill-rule="nonzero"/>
                        </g>
                        <g class="typst-text" transform="matrix(1 0 0 -1 133.8292222222222 27.409199999999995)">
                            <use xlink:href="#g945B72F385E24FAC1FE2485431B6004D" x="0" y="0" fill="#000000" fill-rule="nonzero"/>
                        </g>
                        <g class="typst-text" transform="matrix(1 0 0 -1 136.20222222222222 27.409199999999995)">
                            <use xlink:href="#g2F1687F62A646D26B3CA30D34A61B3FD" x="0" y="0" fill="#000000" fill-rule="nonzero"/>
                        </g>
                        <g class="typst-text" transform="matrix(1 0 0 -1 128.57572222222223 38.2402)">
                            <use xlink:href="#g3C0099DA3FBDC54B123012856B59EFE1" x="0" y="0" fill="#000000" fill-rule="nonzero"/>
                        </g>
                        <g class="typst-text" transform="matrix(1 0 0 -1 129.98572222222222 51.541199999999996)">
                            <use xlink:href="#g3E55C7F8B58FC158324CA12C9FF8E7C5" x="0" y="0" fill="#000000" fill-rule="nonzero"/>
                        </g>
                        <g class="typst-text" transform="matrix(1 0 0 -1 128.57572222222223 63.5012)">
                            <use xlink:href="#g3C0099DA3FBDC54B123012856B59EFE1" x="0" y="0" fill="#000000" fill-rule="nonzero"/>
                        </g>
                        <g class="typst-text" transform="matrix(1 0 0 -1 145.74522222222222 11.638199999999996)">
                            <use xlink:href="#gC5751360BE45FD4DB2C7AEDA7CAAD23E" x="0" y="0" fill="#000000" fill-rule="nonzero"/>
                        </g>
                        <g class="typst-text" transform="matrix(1 0 0 -1 154.18522222222222 14.108199999999995)">
                            <use xlink:href="#g4B21B677717776B012499AEBFDA13185" x="0" y="0" fill="#000000" fill-rule="nonzero"/>
                        </g>
                        <g class="typst-text" transform="matrix(1 0 0 -1 158.1682222222222 14.108199999999995)">
                            <use xlink:href="#g945B72F385E24FAC1FE2485431B6004D" x="0" y="0" fill="#000000" fill-rule="nonzero"/>
                        </g>
                        <g class="typst-text" transform="matrix(1 0 0 -1 160.54122222222222 14.108199999999995)">
                            <use xlink:href="#g1A8E38081AD787A502FEE74A7655645C" x="0" y="0" fill="#000000" fill-rule="nonzero"/>
                        </g>
                        <g class="typst-text" transform="matrix(1 0 0 -1 145.74522222222222 24.939199999999992)">
                            <use xlink:href="#gC5751360BE45FD4DB2C7AEDA7CAAD23E" x="0" y="0" fill="#000000" fill-rule="nonzero"/>
                        </g>
                        <g class="typst-text" transform="matrix(1 0 0 -1 154.18522222222222 27.409199999999995)">
                            <use xlink:href="#g2F1687F62A646D26B3CA30D34A61B3FD" x="0" y="0" fill="#000000" fill-rule="nonzero"/>
                        </g>
                        <g class="typst-text" transform="matrix(1 0 0 -1 158.1682222222222 27.409199999999995)">
                            <use xlink:href="#g945B72F385E24FAC1FE2485431B6004D" x="0" y="0" fill="#000000" fill-rule="nonzero"/>
                        </g>
                        <g class="typst-text" transform="matrix(1 0 0 -1 160.54122222222222 27.409199999999995)">
                            <use xlink:href="#g1A8E38081AD787A502FEE74A7655645C" x="0" y="0" fill="#000000" fill-rule="nonzero"/>
                        </g>
                        <g class="typst-text" transform="matrix(1 0 0 -1 145.74522222222222 38.2402)">
                            <use xlink:href="#gC5751360BE45FD4DB2C7AEDA7CAAD23E" x="0" y="0" fill="#000000" fill-rule="nonzero"/>
                        </g>
                        <g class="typst-text" transform="matrix(1 0 0 -1 154.18522222222222 40.71020000000001)">
                            <use xlink:href="#g1A8E38081AD787A502FEE74A7655645C" x="0" y="0" fill="#000000" fill-rule="nonzero"/>
                        </g>
                        <g class="typst-text" transform="matrix(1 0 0 -1 158.1682222222222 40.71020000000001)">
                            <use xlink:href="#g945B72F385E24FAC1FE2485431B6004D" x="0" y="0" fill="#000000" fill-rule="nonzero"/>
                        </g>
                        <g class="typst-text" transform="matrix(1 0 0 -1 160.54122222222222 40.71020000000001)">
                            <use xlink:href="#g1A8E38081AD787A502FEE74A7655645C" x="0" y="0" fill="#000000" fill-rule="nonzero"/>
                        </g>
                        <g class="typst-text" transform="matrix(1 0 0 -1 154.32472222222222 51.541199999999996)">
                            <use xlink:href="#g3E55C7F8B58FC158324CA12C9FF8E7C5" x="0" y="0" fill="#000000" fill-rule="nonzero"/>
                        </g>
                        <g class="typst-text" transform="matrix(1 0 0 -1 152.91472222222222 63.5012)">
                            <use xlink:href="#g3C0099DA3FBDC54B123012856B59EFE1" x="0" y="0" fill="#000000" fill-rule="nonzero"/>
                        </g>
                        <g class="typst-text" transform="matrix(1 0 0 -1 170.08422222222222 11.638199999999996)">
                            <use xlink:href="#g21D3513E4F76B03E2240B179060BED0E" x="0" y="0" fill="#000000" fill-rule="nonzero"/>
                        </g>
                        <g class="typst-text" transform="matrix(1 0 0 -1 170.08422222222222 24.939199999999992)">
                            <use xlink:href="#g21D3513E4F76B03E2240B179060BED0E" x="0" y="0" fill="#000000" fill-rule="nonzero"/>
                        </g>
                        <g class="typst-text" transform="matrix(1 0 0 -1 170.08422222222222 38.2402)">
                            <use xlink:href="#g21D3513E4F76B03E2240B179060BED0E" x="0" y="0" fill="#000000" fill-rule="nonzero"/>
                        </g>
                        <g class="typst-text" transform="matrix(1 0 0 -1 170.8992222222222 51.541199999999996)">
                            <use xlink:href="#g9935DBACBF9E6EF6625176E2E55D45AC" x="0" y="0" fill="#000000" fill-rule="nonzero"/>
                        </g>
                        <g class="typst-text" transform="matrix(1 0 0 -1 170.08422222222222 63.5012)">
                            <use xlink:href="#g21D3513E4F76B03E2240B179060BED0E" x="0" y="0" fill="#000000" fill-rule="nonzero"/>
                        </g>
                        <g class="typst-text" transform="matrix(1 0 0 -1 184.37722222222223 11.638199999999996)">
                            <use xlink:href="#gC5751360BE45FD4DB2C7AEDA7CAAD23E" x="0" y="0" fill="#000000" fill-rule="nonzero"/>
                        </g>
                        <g class="typst-text" transform="matrix(1 0 0 -1 192.81722222222223 14.108199999999995)">
                            <use xlink:href="#g4B21B677717776B012499AEBFDA13185" x="0" y="0" fill="#000000" fill-rule="nonzero"/>
                        </g>
                        <g class="typst-text" transform="matrix(1 0 0 -1 196.80022222222223 14.108199999999995)">
                            <use xlink:href="#g945B72F385E24FAC1FE2485431B6004D" x="0" y="0" fill="#000000" fill-rule="nonzero"/>
                        </g>
                        <g class="typst-text" transform="matrix(1 0 0 -1 199.17322222222222 14.108199999999995)">
                            <use xlink:href="#g15C61848AE33161FCF603BFA8DC01A8B" x="0" y="0" fill="#000000" fill-rule="nonzero"/>
                        </g>
                        <g class="typst-text" transform="matrix(1 0 0 -1 184.37722222222223 24.939199999999992)">
                            <use xlink:href="#gC5751360BE45FD4DB2C7AEDA7CAAD23E" x="0" y="0" fill="#000000" fill-rule="nonzero"/>
                        </g>
                        <g class="typst-text" transform="matrix(1 0 0 -1 192.81722222222223 27.409199999999995)">
                            <use xlink:href="#g2F1687F62A646D26B3CA30D34A61B3FD" x="0" y="0" fill="#000000" fill-rule="nonzero"/>
                        </g>
                        <g class="typst-text" transform="matrix(1 0 0 -1 196.80022222222223 27.409199999999995)">
                            <use xlink:href="#g945B72F385E24FAC1FE2485431B6004D" x="0" y="0" fill="#000000" fill-rule="nonzero"/>
                        </g>
                        <g class="typst-text" transform="matrix(1 0 0 -1 199.17322222222222 27.409199999999995)">
                            <use xlink:href="#g15C61848AE33161FCF603BFA8DC01A8B" x="0" y="0" fill="#000000" fill-rule="nonzero"/>
                        </g>
                        <g class="typst-text" transform="matrix(1 0 0 -1 184.37722222222223 38.2402)">
                            <use xlink:href="#gC5751360BE45FD4DB2C7AEDA7CAAD23E" x="0" y="0" fill="#000000" fill-rule="nonzero"/>
                        </g>
                        <g class="typst-text" transform="matrix(1 0 0 -1 192.81722222222223 40.71020000000001)">
                            <use xlink:href="#g1A8E38081AD787A502FEE74A7655645C" x="0" y="0" fill="#000000" fill-rule="nonzero"/>
                        </g>
                        <g class="typst-text" transform="matrix(1 0 0 -1 196.80022222222223 40.71020000000001)">
                            <use xlink:href="#g945B72F385E24FAC1FE2485431B6004D" x="0" y="0" fill="#000000" fill-rule="nonzero"/>
                        </g>
                        <g class="typst-text" transform="matrix(1 0 0 -1 199.17322222222222 40.71020000000001)">
                            <use xlink:href="#g15C61848AE33161FCF603BFA8DC01A8B" x="0" y="0" fill="#000000" fill-rule="nonzero"/>
                        </g>
                        <g class="typst-text" transform="matrix(1 0 0 -1 194.4897222222222 51.541199999999996)">
                            <use xlink:href="#g3E55C7F8B58FC158324CA12C9FF8E7C5" x="0" y="0" fill="#000000" fill-rule="nonzero"/>
                        </g>
                        <g class="typst-text" transform="matrix(1 0 0 -1 182.84422222222221 63.5012)">
                            <use xlink:href="#gC5751360BE45FD4DB2C7AEDA7CAAD23E" x="0" y="0" fill="#000000" fill-rule="nonzero"/>
                        </g>
                        <g class="typst-text" transform="matrix(1 0 0 -1 191.2842222222222 65.97120000000001)">
                            <use xlink:href="#g15C61848AE33161FCF603BFA8DC01A8B" x="0" y="0" fill="#000000" fill-rule="nonzero"/>
                        </g>
                        <g class="typst-text" transform="matrix(1 0 0 -1 198.33322222222222 65.97120000000001)">
                            <use xlink:href="#g945B72F385E24FAC1FE2485431B6004D" x="0" y="0" fill="#000000" fill-rule="nonzero"/>
                        </g>
                        <g class="typst-text" transform="matrix(1 0 0 -1 200.7062222222222 65.97120000000001)">
                            <use xlink:href="#g15C61848AE33161FCF603BFA8DC01A8B" x="0" y="0" fill="#000000" fill-rule="nonzero"/>
                        </g>
                    </g>
                </g>
                <g class="typst-text" transform="matrix(1 0 0 -1 208.31522222222222 70.4804)">
                    <use xlink:href="#g1B0BB0731DB6059F906A26372A63528A" x="0" y="0" fill="#000000" fill-rule="nonzero"/>
                    <use xlink:href="#g52108651150A82C87B3A63DC2B6EB0B1" x="0" y="14.576747220924801" fill="#000000" fill-rule="nonzero"/>
                    <use xlink:href="#g52108651150A82C87B3A63DC2B6EB0B1" x="0" y="18.995110415693603" fill="#000000" fill-rule="nonzero"/>
                    <use xlink:href="#g52108651150A82C87B3A63DC2B6EB0B1" x="0" y="23.413473610462404" fill="#000000" fill-rule="nonzero"/>
                    <use xlink:href="#g52108651150A82C87B3A63DC2B6EB0B1" x="0" y="27.831836805231205" fill="#000000" fill-rule="nonzero"/>
                    <use xlink:href="#g52108651150A82C87B3A63DC2B6EB0B1" x="0" y="32.25020000000001" fill="#000000" fill-rule="nonzero"/>
                    <use xlink:href="#g52108651150A82C87B3A63DC2B6EB0B1" x="0" y="36.66856319476881" fill="#000000" fill-rule="nonzero"/>
                    <use xlink:href="#g52108651150A82C87B3A63DC2B6EB0B1" x="0" y="41.08692638953761" fill="#000000" fill-rule="nonzero"/>
                    <use xlink:href="#g52108651150A82C87B3A63DC2B6EB0B1" x="0" y="45.50528958430641" fill="#000000" fill-rule="nonzero"/>
                    <use xlink:href="#g52108651150A82C87B3A63DC2B6EB0B1" x="0" y="49.92365277907521" fill="#000000" fill-rule="nonzero"/>
                    <use xlink:href="#g633758CF12323028C71F3A7F00D991AE" x="0" y="54.530400000000014" fill="#000000" fill-rule="nonzero"/>
                </g>
                <g class="typst-text" transform="matrix(1 0 0 -1 218.73188888888888 60.9522)">
                    <use xlink:href="#gDEF79BD8CE7A7AE756B4B62449958962" x="0" y="0" fill="#000000" fill-rule="nonzero"/>
                    <use xlink:href="#g61D406AB69EB57B05FA3B585AC7AAE3D" x="0" y="14.443120675105487" fill="#000000" fill-rule="nonzero"/>
                    <use xlink:href="#g61D406AB69EB57B05FA3B585AC7AAE3D" x="0" y="18.582560337552742" fill="#000000" fill-rule="nonzero"/>
                    <use xlink:href="#g61D406AB69EB57B05FA3B585AC7AAE3D" x="0" y="22.722" fill="#000000" fill-rule="nonzero"/>
                    <use xlink:href="#g61D406AB69EB57B05FA3B585AC7AAE3D" x="0" y="26.86143966244726" fill="#000000" fill-rule="nonzero"/>
                    <use xlink:href="#g61D406AB69EB57B05FA3B585AC7AAE3D" x="0" y="31.00087932489452" fill="#000000" fill-rule="nonzero"/>
                    <use xlink:href="#g1E20F1C167A5CC91B4FBC9D116F18DD" x="0" y="35.474000000000004" fill="#000000" fill-rule="nonzero"/>
                </g>
                <g class="typst-group">
                    <g>
                        <g class="typst-text" transform="matrix(1 0 0 -1 229.01488888888886 20.3002)">
                            <use xlink:href="#g211B171E5E5269C5CCF791032D7E5E6B" x="0" y="0" fill="#000000" fill-rule="nonzero"/>
                        </g>
                        <g class="typst-text" transform="matrix(1 0 0 -1 234.7348888888889 22.7702)">
                            <use xlink:href="#g4B21B677717776B012499AEBFDA13185" x="0" y="0" fill="#000000" fill-rule="nonzero"/>
                        </g>
                        <g class="typst-text" transform="matrix(1 0 0 -1 229.01488888888886 32.2602)">
                            <use xlink:href="#g211B171E5E5269C5CCF791032D7E5E6B" x="0" y="0" fill="#000000" fill-rule="nonzero"/>
                        </g>
                        <g class="typst-text" transform="matrix(1 0 0 -1 234.7348888888889 34.730199999999996)">
                            <use xlink:href="#g2F1687F62A646D26B3CA30D34A61B3FD" x="0" y="0" fill="#000000" fill-rule="nonzero"/>
                        </g>
                        <g class="typst-text" transform="matrix(1 0 0 -1 233.0563888888889 44.2202)">
                            <use xlink:href="#g3E55C7F8B58FC158324CA12C9FF8E7C5" x="0" y="0" fill="#000000" fill-rule="nonzero"/>
                        </g>
                        <g class="typst-text" transform="matrix(1 0 0 -1 227.48188888888888 56.1802)">
                            <use xlink:href="#g211B171E5E5269C5CCF791032D7E5E6B" x="0" y="0" fill="#000000" fill-rule="nonzero"/>
                        </g>
                        <g class="typst-text" transform="matrix(1 0 0 -1 233.20188888888887 58.6502)">
                            <use xlink:href="#g15C61848AE33161FCF603BFA8DC01A8B" x="0" y="0" fill="#000000" fill-rule="nonzero"/>
                        </g>
                    </g>
                </g>
                <g class="typst-text" transform="matrix(1 0 0 -1 240.81088888888888 60.9522)">
                    <use xlink:href="#g1B0BB0731DB6059F906A26372A63528A" x="0" y="0" fill="#000000" fill-rule="nonzero"/>
                    <use xlink:href="#g52108651150A82C87B3A63DC2B6EB0B1" x="0" y="14.443120675105487" fill="#000000" fill-rule="nonzero"/>
                    <use xlink:href="#g52108651150A82C87B3A63DC2B6EB0B1" x="0" y="18.582560337552742" fill="#000000" fill-rule="nonzero"/>
                    <use xlink:href="#g52108651150A82C87B3A63DC2B6EB0B1" x="0" y="22.722" fill="#000000" fill-rule="nonzero"/>
                    <use xlink:href="#g52108651150A82C87B3A63DC2B6EB0B1" x="0" y="26.86143966244726" fill="#000000" fill-rule="nonzero"/>
                    <use xlink:href="#g52108651150A82C87B3A63DC2B6EB0B1" x="0" y="31.00087932489452" fill="#000000" fill-rule="nonzero"/>
                    <use xlink:href="#g633758CF12323028C71F3A7F00D991AE" x="0" y="35.474000000000004" fill="#000000" fill-rule="nonzero"/>
                </g>
            </g>
        </g>
    </g>
    <defs id="glyph">
        <symbol id="g9F9969AD4D2A5F18B0AA9DB19423EBEC" overflow="visible">
            <path d="M 0 0m 1.99 6.56 c 0 -0.099999905 0.109999895 -0.1500001 0.31999993 -0.1500001 c 0.4000001 0 0.5999999 -0.03999996 0.5999999 -0.13000011 c 0 -0.029999733 -0.01999998 -0.099999905 -0.049999952 -0.23000002 l -1.3 -5.2299995 c -0.049999952 -0.22000003 -0.14999998 -0.35 -0.29999995 -0.4 c -0.07000005 -0.02000001 -0.25 -0.030000001 -0.56 -0.030000001 c -0.22 0 -0.32 -0.01999998 -0.32 -0.22999999 c 0 -0.11 0.109999985 -0.16 0.32 -0.16 h 5.13 c 0.23999977 0 0.25999975 0.02 0.34000015 0.19 l 0.39999962 0.90000004 c 0.26999998 0.6199999 0.46000004 1.0799998 0.5700002 1.39 c -0.01999998 0.089999914 -0.05000019 0.14999986 -0.15999985 0.14999986 c -0.07000017 0 -0.13000011 -0.049999952 -0.17000008 -0.13999987 c -0.25 -0.59000003 -0.49000025 -1.0400001 -0.73 -1.36 c -0.4000001 -0.54 -0.99000025 -0.74 -1.9299998 -0.74 h -1.45 c -0.10000014 0 -0.17000008 0 -0.21000004 0.00999999 c -0.06000018 0 -0.09000015 0.02000001 -0.09000015 0.050000012 c 0 0.02000001 0.01999998 0.089999974 0.05000019 0.21999997 l 0.65999985 2.67 h 0.95000005 c 0.4699998 0 0.7199998 -0.059999943 0.77 -0.19000006 c 0.01999998 -0.049999952 0.029999733 -0.119999886 0.029999733 -0.22000003 c 0 -0.12999988 -0.01999998 -0.28999996 -0.069999695 -0.47999978 c -0.01999998 -0.05000019 -0.03000021 -0.09000015 -0.03000021 -0.120000124 c 0 -0.099999905 0.059999943 -0.14999986 0.17000008 -0.14999986 c 0.09000015 0 0.1500001 0.07999992 0.19000006 0.22999978 l 0.55999994 2.3200002 c 0 0.099999905 -0.05000019 0.1500001 -0.15999985 0.1500001 c -0.07999992 0 -0.13999987 -0.07000017 -0.17000008 -0.21000004 c -0.099999905 -0.39000034 -0.23000002 -0.64000034 -0.4000001 -0.7600002 c -0.17000008 -0.119999886 -0.4499998 -0.17999983 -0.86000013 -0.17999983 h -0.87999964 l 0.5799999 2.33 c 0.07999992 0.33999968 0.07999992 0.3499999 0.5 0.3499999 h 1.3899999 c 0.5100002 0 0.86000013 -0.05000019 1.0500002 -0.1500001 c 0.27999973 -0.1500001 0.4199996 -0.4499998 0.4199996 -0.9000001 c 0 -0.1699996 -0.009999752 -0.3499999 -0.03999996 -0.52 c 0 -0.01999998 0 -0.049999714 -0.009999752 -0.089999676 v -0.09000015 c 0 -0.11000013 0.049999714 -0.15999985 0.1500001 -0.15999985 c 0.099999905 0 0.15999985 0.089999676 0.17999983 0.27999973 l 0.19999981 1.71 c 0.03000021 0.2800002 -0.03999996 0.30999994 -0.30999994 0.30999994 h -4.99 c -0.23000002 0 -0.3399999 -0.009999752 -0.3399999 -0.23999977 Z "/>
        </symbol>
        <symbol id="gAE53D23EE55AB2A28455969FF7EAE4F1" overflow="visible">
            <path d="M 0 0m 6.98 3.6699998 h -6.1800003 c -0.15999997 0 -0.23999995 -0.07999992 -0.23999995 -0.23000002 c 0 -0.14999986 0.07999998 -0.22999978 0.23999995 -0.22999978 h 6.1800003 c 0.15999985 0 0.23999977 0.07999992 0.23999977 0.22999978 c 0 0.120000124 -0.11000013 0.23000002 -0.23999977 0.23000002 Z m 0 -1.8799999 h -6.1800003 c -0.15999997 0 -0.23999995 -0.08000004 -0.23999995 -0.23000002 c 0 -0.14999998 0.07999998 -0.23000002 0.23999995 -0.23000002 h 6.1800003 c 0.15999985 0 0.23999977 0.08000004 0.23999977 0.23000002 c 0 0.13 -0.11000013 0.23000002 -0.23999977 0.23000002 Z "/>
        </symbol>
        <symbol id="gF94E8D995006C12A7B1032AA6E2921F5" overflow="visible">
            <path d="M 0 0m 3.1799998 -2.48 c 0.09000015 0 0.1400001 0.05000019 0.1400001 0.1400001 c 0 0.029999971 -0.01999998 0.06999993 -0.049999952 0.109999895 c -0.52 0.4000001 -0.94000006 1.0600001 -1.25 1.97 c -0.26999998 0.78999996 -0.40999997 1.5699999 -0.40999997 2.34 v 0.8399999 c 0 0.77 0.13999999 1.55 0.40999997 2.34 c 0.30999994 0.9100003 0.73 1.5700002 1.25 1.9700003 c 0.029999971 0.029999733 0.049999952 0.069999695 0.049999952 0.10999966 c 0 0.09000015 -0.049999952 0.14000034 -0.1400001 0.14000034 c -0.00999999 0 -0.03999996 -0.010000229 -0.06999993 -0.03000021 c -0.5999999 -0.46000004 -1.0999999 -1.1399999 -1.51 -2.0499997 c -0.39 -0.87000036 -0.5899999 -1.6900003 -0.5899999 -2.4800003 v -0.8399999 c 0 -0.78999996 0.19999993 -1.6099999 0.5899999 -2.48 c 0.4100001 -0.90999997 0.9100001 -1.59 1.51 -2.0500002 c 0.029999971 -0.01999998 0.059999943 -0.029999971 0.06999993 -0.029999971 Z "/>
        </symbol>
        <symbol id="g211B171E5E5269C5CCF791032D7E5E6B" overflow="visible">
            <path d="M 0 0m 5.27 3.73 c 0 0.46000004 -0.4500003 0.69000006 -0.9500003 0.69000006 c -0.42999983 0 -0.76999974 -0.23000002 -1.0299997 -0.69000006 c -0.21000004 0.46000004 -0.55999994 0.69000006 -1.0699999 0.69000006 c -0.49 0 -0.8900001 -0.23000002 -1.21 -0.68000007 c -0.26999998 -0.3900001 -0.41000003 -0.68000007 -0.41000003 -0.8700001 c 0 -0.089999914 0.050000012 -0.13999987 0.15000004 -0.13999987 c 0.089999974 0 0.14999998 0.049999952 0.16999996 0.13999987 c 0.19000006 0.5799999 0.61 1.2600002 1.2800001 1.2600002 c 0.32999992 0 0.49 -0.21000028 0.49 -0.6200001 c 0 -0.21000004 -0.18000007 -0.99 -0.5300002 -2.33 c -0.16999984 -0.66999996 -0.4699999 -0.99999994 -0.89999986 -0.99999994 c -0.13999999 0 -0.27000004 0.030000001 -0.38 0.08 c 0.26 0.099999994 0.39 0.27999997 0.39 0.53999996 c 0 0.26 -0.13 0.39 -0.39999998 0.39 c -0.33000004 0 -0.58000004 -0.27999997 -0.58000004 -0.60999995 c 0 -0.45999998 0.47 -0.69 0.96000004 -0.69 c 0.41999996 0 0.76 0.22999999 1.03 0.69 c 0.19000006 -0.45999998 0.54999995 -0.69 1.0699999 -0.69 c 0.48000002 0 0.8800001 0.22999999 1.1999998 0.68 c 0.26999998 0.39 0.41000032 0.68 0.41000032 0.86999995 c 0 0.09000003 -0.05000019 0.13999999 -0.1500001 0.13999999 c -0.09000015 0 -0.13999987 -0.049999952 -0.17000008 -0.13999999 c -0.17000008 -0.56999993 -0.6199999 -1.26 -1.27 -1.26 c -0.32999992 0 -0.5 0.2 -0.5 0.60999995 c 0 0.13 0.049999952 0.40999997 0.16000009 0.86 l 0.3399999 1.35 c 0.19000006 0.75 0.5 1.1300001 0.94000006 1.1300001 c 0.13999987 0 0.26999998 -0.03000021 0.3800001 -0.0800004 c -0.26999998 -0.089999914 -0.4000001 -0.26999974 -0.4000001 -0.5399997 c 0 -0.26 0.13999987 -0.3900001 0.40999985 -0.3900001 c 0.32000017 0 0.5700002 0.28999996 0.5700002 0.61000013 Z "/>
        </symbol>
        <symbol id="g4B21B677717776B012499AEBFDA13185" overflow="visible">
            <path d="M 0 0m 2.121 4.6480002 c -0.301 -0.29400015 -0.74899995 -0.44099998 -1.358 -0.44099998 v -0.3080001 c 0.413 0 0.742 0.062999964 0.9940001 0.18200016 v -3.4860003 c 0 -0.09100002 -0.0070000887 -0.14700001 -0.027999997 -0.17500001 c -0.035000086 -0.07699999 -0.245 -0.11900002 -0.6300001 -0.11900002 h -0.28699994 v -0.301 l 1.246 0.028 l 1.253 -0.028 v 0.301 h -0.28699994 c -0.385 0 -0.595 0.042000026 -0.6370001 0.11900002 c -0.013999939 0.027999997 -0.020999908 0.08399999 -0.020999908 0.17500001 v 3.8290002 c 0 0.18899965 -0.028000116 0.22399998 -0.24500012 0.22399998 Z "/>
        </symbol>
        <symbol id="g2F1687F62A646D26B3CA30D34A61B3FD" overflow="visible">
            <path d="M 0 0m 0.833 2.9680002 c 0.22400004 0 0.39200002 0.16799998 0.39200002 0.39199996 c 0 0.2520001 -0.13300002 0.385 -0.39200002 0.39199996 c 0.15400004 0.32900023 0.504 0.595 0.95900005 0.595 c 0.61599994 0 1.0220001 -0.4619999 1.0220001 -1.0780001 c 0 -0.33599997 -0.11899996 -0.658 -0.36400008 -0.97300005 c -0.11899996 -0.16100001 -0.21000004 -0.273 -0.273 -0.33599997 l -1.659 -1.645 c -0.09099999 -0.08399999 -0.07699999 -0.10499999 -0.07699999 -0.315 h 2.884 l 0.21700001 1.316 h -0.2939999 c -0.049000025 -0.37099993 -0.10500002 -0.58799994 -0.16799998 -0.63699996 c -0.035000086 -0.021000028 -0.2520001 -0.035000026 -0.6650002 -0.035000026 h -1.1899999 c 0.46899998 0.41300005 0.903 0.7840001 1.3160001 1.1130002 c 0.31500006 0.245 0.53900003 0.462 0.6789999 0.6509999 c 0.21000004 0.273 0.31500006 0.5600002 0.31500006 0.86100006 c 0 0.43400002 -0.16799998 0.77699995 -0.5109999 1.0290003 c -0.30100012 0.23099995 -0.67900014 0.3499999 -1.1270001 0.3499999 c -0.385 0 -0.714 -0.11199999 -1.001 -0.33599997 c -0.301 -0.24500036 -0.455 -0.5530002 -0.455 -0.93100023 c 0 -0.23799992 0.17499998 -0.41299987 0.392 -0.41299987 Z "/>
        </symbol>
        <symbol id="g21D3513E4F76B03E2240B179060BED0E" overflow="visible">
            <path d="M 0 0m 7.2 2.5 c 0 0.29999995 -0.25999975 0.53 -0.55999994 0.53 c -0.30999994 0 -0.5700002 -0.23000002 -0.5700002 -0.53 c 0 -0.29999995 0.26000023 -0.5300001 0.5700002 -0.5300001 c 0.3000002 0 0.55999994 0.23000014 0.55999994 0.5300001 Z m -2.7599998 0 c 0 0.29999995 -0.26000023 0.53 -0.5600002 0.53 c -0.30999994 0 -0.55999994 -0.23000002 -0.55999994 -0.53 c 0 -0.29999995 0.25 -0.5300001 0.55999994 -0.5300001 c 0.29999995 0 0.5600002 0.23000014 0.5600002 0.5300001 Z m -2.75 0 c 0 0.29999995 -0.26 0.53 -0.56999993 0.53 c -0.3 0 -0.56 -0.23000002 -0.56 -0.53 c 0 -0.29999995 0.26 -0.5300001 0.56 -0.5300001 c 0.29999995 0 0.56999993 0.23000014 0.56999993 0.5300001 Z "/>
        </symbol>
        <symbol id="g15C61848AE33161FCF603BFA8DC01A8B" overflow="visible">
            <path d="M 0 0m 6.2580004 4.7530003 c -0.15400028 0 -0.68600035 0.027999878 -0.84000015 0.027999878 c -0.11899996 0 -0.17500019 -0.0630002 -0.17500019 -0.18200016 c 0.020999908 -0.069999695 0.028000355 -0.11199999 0.13300037 -0.11899996 c 0.09799957 -0.0069999695 0.14699984 -0.034999847 0.14699984 -0.069999695 c 0 -0.07700014 -0.09800005 -0.18200016 -0.29400015 -0.32200003 l -2.835 -1.9880002 l 0.53200006 2.107 c 0.035000086 0.13999987 0.10500002 0.22399998 0.21000004 0.25899982 c 0.034999847 0.0069999695 0.15400004 0.013999939 0.37100005 0.013999939 c 0.16100001 0 0.23799992 0.035000324 0.23799992 0.16800022 c 0 0.09100008 -0.049000025 0.1329999 -0.1400001 0.1329999 c -0.17499995 0 -0.7349999 -0.027999878 -0.90999985 -0.027999878 c -0.329 0 -0.76300013 0.027999878 -0.9170002 0.027999878 c -0.11199999 0 -0.16799998 -0.0630002 -0.16799998 -0.18200016 c 0 -0.076999664 0.08399999 -0.11899996 0.2520001 -0.11899996 c 0.245 0 0.39200008 0.013999939 0.39200008 -0.08400011 l -0.95200014 -3.822 c -0.034999967 -0.13999999 -0.10500002 -0.22399998 -0.21000004 -0.252 c -0.034999967 -0.013999999 -0.16099995 -0.020999998 -0.371 -0.020999998 c -0.16100001 0 -0.238 -0.020999998 -0.238 -0.182 c 0.020999998 -0.077 0.028000027 -0.119 0.14000002 -0.119 c 0.16799998 0 0.735 0.028 0.903 0.028 c 0.329 0 0.77 -0.028 0.924 -0.028 c 0.11199999 0 0.16799998 0.063 0.16799998 0.18200001 c 0 0.06299999 -0.020999908 0.09799999 -0.06999993 0.10499999 c -0.0769999 0.0069999993 -0.13300014 0.013999999 -0.17499995 0.013999999 c -0.21000004 0.0069999993 -0.39900005 -0.0069999993 -0.39900005 0.09100002 l 0.3219999 1.316 l 1.1200001 0.78400004 l 0.9940002 -1.9180001 c 0.027999878 -0.055999994 0.041999817 -0.09799999 0.041999817 -0.11899999 c 0 -0.10499999 -0.09800005 -0.15400001 -0.29400015 -0.15400001 c -0.14699984 0 -0.20299983 -0.048999995 -0.20299983 -0.182 c 0.020999908 -0.077 0.027999878 -0.119 0.1400001 -0.119 c 0.16799974 0 0.7209997 0.028 0.88899994 0.028 c 0.1329999 0 0.546 -0.028 0.6789999 -0.028 c 0.11199999 0 0.16800022 0.056 0.16800022 0.17500001 c 0 0.08399999 -0.0630002 0.12599999 -0.18200016 0.12599999 c -0.21700001 0 -0.36399984 0.07000002 -0.43400002 0.21700001 c -0.40600014 0.791 -0.81900024 1.568 -1.2179999 2.3660002 l 0.14699984 0.11899996 l 0.7000003 0.49 c 0.51799965 0.3570001 0.8049998 0.55999994 0.86100006 0.59500027 c 0.38499975 0.23799992 0.7069998 0.3709998 0.9659996 0.39199972 c 0.119000435 0.0069999695 0.18200016 0.07000017 0.18200016 0.17500019 c 0 0.07700014 -0.041999817 0.11899996 -0.11899996 0.11899996 c -0.08400011 0 -0.3920002 -0.020999908 -0.47599983 -0.020999908 Z "/>
        </symbol>
        <symbol id="g4476E285DC1EB1C2F92DABBE6141CA00" overflow="visible">
            <path d="M 0 0m 0.78 -2.45 c 0.6 0.46000004 1.1 1.1400001 1.51 2.0500002 c 0.38999987 0.87 0.5899999 1.6899999 0.5899999 2.48 v 0.8399999 c 0 0.78999996 -0.20000005 1.6099999 -0.5899999 2.4800003 c -0.40999997 0.90999985 -0.90999997 1.5899997 -1.51 2.0499997 c -0.029999971 0.01999998 -0.060000002 0.03000021 -0.06999999 0.03000021 c -0.089999974 0 -0.13999999 -0.05000019 -0.13999999 -0.14000034 c 0 -0.03999996 0.01999998 -0.07999992 0.050000012 -0.10999966 c 0.52 -0.4000001 0.93999994 -1.06 1.25 -1.9700003 c 0.26999986 -0.78999996 0.40999997 -1.5699999 0.40999997 -2.34 v -0.8399999 c 0 -0.77 -0.1400001 -1.55 -0.40999997 -2.34 c -0.31000006 -0.90999997 -0.73 -1.5699999 -1.25 -1.97 c -0.030000031 -0.03999996 -0.050000012 -0.07999992 -0.050000012 -0.109999895 c 0 -0.089999914 0.050000012 -0.1400001 0.13999999 -0.1400001 c 0.00999999 0 0.04000002 0.00999999 0.06999999 0.029999971 Z "/>
        </symbol>
        <symbol id="gDEF79BD8CE7A7AE756B4B62449958962" overflow="visible">
            <path d="M 0 0m 7.98 0 c 0.1699996 0 0.24999952 0.08 0.24999952 0.25 c 0 0.09 -0.03999996 0.14999998 -0.10999966 0.19 c -0.80999994 0.61999995 -1.54 1.5799999 -2.1999998 2.8999999 c -1.1800003 2.3500001 -2.0700002 5.6899996 -2.0700002 9.08 v 2.5299997 h -1.0799999 v -2.5299997 c 0 -3.2800007 1.1099999 -6.67 2.35 -8.97 c 0.8200002 -1.5199999 1.73 -2.6499999 2.7199998 -3.3999999 c 0.03999996 -0.029999997 0.09000015 -0.049999997 0.14000034 -0.049999997 Z "/>
        </symbol>
        <symbol id="g61D406AB69EB57B05FA3B585AC7AAE3D" overflow="visible">
            <path d="M 0 0m 2.77 0 h 1.0799999 v 4.98 h -1.0799999 Z "/>
        </symbol>
        <symbol id="g1E20F1C167A5CC91B4FBC9D116F18DD" overflow="visible">
            <path d="M 0 0m 8.13 14.5 c 0.069999695 0.049999237 0.09999943 0.119999886 0.09999943 0.19999981 c 0 0.17000008 -0.07999992 0.25 -0.24999952 0.25 c -0.05000019 0 -0.10000038 -0.020000458 -0.14000034 -0.05000019 c -0.8699999 -0.6700001 -1.6999998 -1.6599998 -2.48 -2.9799995 c -1.3699996 -2.3600006 -2.5899997 -5.8900003 -2.5899997 -9.39 v -2.53 h 1.0799999 v 2.53 c 0 1.5399997 0.17999983 3.09 0.5300002 4.66 c 0.6199999 2.7999997 1.9199996 5.94 3.75 7.31 Z "/>
        </symbol>
        <symbol id="gC5751360BE45FD4DB2C7AEDA7CAAD23E" overflow="visible">
            <path d="M 0 0m 9.559999 6.7999997 c -0.18999958 0 -0.8399992 0.03000021 -1.0299997 0.03000021 c -0.14999962 0 -0.22999954 -0.07999992 -0.22999954 -0.23000002 c 0 -0.099999905 0.059999466 -0.1500001 0.17999935 -0.15999985 c 0.3699999 -0.010000229 0.5500002 -0.12000036 0.5500002 -0.34000015 c 0 -0.059999943 -0.03999996 -0.15999985 -0.119999886 -0.30999994 l -2.62 -4.54 l -0.3499999 4.77 c -0.03999996 0.35999966 0.19999981 0.42000008 0.6499996 0.42000008 c 0.21000004 0 0.30999994 0.07999992 0.30999994 0.23999977 c 0 0.099999905 -0.059999943 0.1500001 -0.18999958 0.1500001 c -0.22000027 0 -0.99000025 -0.03000021 -1.21 -0.03000021 c -0.19000006 0 -0.8499999 0.03000021 -1.04 0.03000021 c -0.1500001 0 -0.23000002 -0.07999992 -0.23000002 -0.24000025 c 0 -0.099999905 0.089999676 -0.14999962 0.27999973 -0.14999962 c 0.30999994 0 0.47000027 -0.07000017 0.48000002 -0.21000004 l 0.059999943 -0.75 l -2.4399998 -4.23 l -0.3599999 4.8799996 c -0.029999971 0.25 0.38999987 0.31000042 0.71000004 0.31000042 c 0.16999984 0 0.25 0.07999992 0.25 0.23999977 c 0 0.099999905 -0.06000018 0.1500001 -0.18000007 0.1500001 c -0.22000003 0 -1 -0.03000021 -1.22 -0.03000021 c -0.18999994 0 -0.84999996 0.03000021 -1.04 0.03000021 c -0.14999998 0 -0.21999997 -0.07999992 -0.21999997 -0.23000002 c 0 -0.11000013 0.099999964 -0.15999985 0.28999996 -0.15999985 c 0.42000002 0 0.45999998 -0.01999998 0.47999996 -0.32000017 l 0.45000005 -6.0499997 c 0.00999999 -0.19 0.07999992 -0.29 0.19999993 -0.29 c 0.13 0.02000001 0.17999995 0.049999997 0.2600001 0.2 c 0.00999999 0.01 0.00999999 0.02 0.00999999 0.03 l 2.8499997 4.93 l 0.36000013 -4.87 c 0.010000229 -0.19 0.07999992 -0.29 0.20000029 -0.29 c 0.099999905 0 0.18999958 0.07000001 0.26999998 0.21 l 3.2599993 5.63 c 0.27000046 0.48999977 0.46000004 0.77 1.0700006 0.8200002 c 0.17999935 0.01999998 0.22999954 0.069999695 0.22999954 0.23999977 c 0 0.099999905 -0.05000019 0.1500001 -0.15999985 0.1500001 c -0.14000034 0 -0.6199999 -0.03000021 -0.7600002 -0.03000021 Z "/>
        </symbol>
        <symbol id="g945B72F385E24FAC1FE2485431B6004D" overflow="visible">
            <path d="M 0 0m 1.1830001 0.805 c -0.22400004 0 -0.39900005 -0.18199998 -0.39900005 -0.413 c 0 -0.24500002 0.16799998 -0.42700002 0.40600002 -0.42700002 c 0.09099996 0 0.17499995 0.028 0.245 0.07700001 c -0.014000058 -0.462 -0.18200004 -0.85400003 -0.504 -1.1690001 c -0.035000026 -0.034999967 -0.056000054 -0.062999964 -0.056000054 -0.09799993 c 0 -0.08399999 0.042000055 -0.12600005 0.11900002 -0.12600005 c 0.048999965 0 0.11900002 0.055999994 0.22400004 0.16799998 c 0.23099995 0.25200003 0.45500004 0.7630001 0.45500004 1.218 c 0 0.38500002 -0.1400001 0.77 -0.49 0.77 Z "/>
        </symbol>
        <symbol id="g3C0099DA3FBDC54B123012856B59EFE1" overflow="visible">
            <path d="M 0 0m 2.49 -0.22 c 1.4099998 0 2.11 1.14 2.11 3.4199998 c 0 1.5300002 -0.32000017 2.5500002 -0.95000005 3.0500002 c -0.3499999 0.26999998 -0.74 0.40999985 -1.1499999 0.40999985 c -1.41 0 -2.1100001 -1.1500001 -2.1100001 -3.46 c 0 -1.8399998 0.49 -3.4199998 2.1 -3.4199998 Z m 1.1199999 5.4599996 c 0.06999993 -0.3499999 0.099999905 -0.9899998 0.099999905 -1.9199998 c 0 -0.9200001 -0.03999996 -1.6 -0.109999895 -2.04 c -0.12999988 -0.79999995 -0.5 -1.1999999 -1.1099999 -1.1999999 c -0.23000002 0 -0.46000004 0.09 -0.6700001 0.26 c -0.26999998 0.22999999 -0.42999995 0.6999999 -0.5 1.42 c -0.029999971 0.25 -0.03999996 0.77 -0.03999996 1.56 c 0 0.8700001 0.029999971 1.4799998 0.08000004 1.8100002 c 0.089999914 0.5499997 0.26999998 0.8999996 0.54999995 1.0499997 c 0.21999991 0.119999886 0.40999997 0.17999983 0.58000004 0.17999983 c 0.64999986 0 1.01 -0.52999973 1.1199999 -1.1199999 Z "/>
        </symbol>
        <symbol id="g3E55C7F8B58FC158324CA12C9FF8E7C5" overflow="visible">
            <path d="M 0 0m 1.62 5.2599998 c 0 0.3000002 -0.23000002 0.55999994 -0.53 0.55999994 c -0.30000007 0 -0.53000003 -0.25999975 -0.53000003 -0.55999994 c 0 -0.30999994 0.22999996 -0.5699997 0.53000003 -0.5699997 c 0.29999995 0 0.53 0.26999998 0.53 0.5699997 Z m 0 -2.7599998 c 0 0.29999995 -0.23000002 0.55999994 -0.53 0.55999994 c -0.30000007 0 -0.53000003 -0.25 -0.53000003 -0.55999994 c 0 -0.30999994 0.22999996 -0.56000006 0.53000003 -0.56000006 c 0.29999995 0 0.53 0.2600001 0.53 0.56000006 Z m 0 -2.76 c 0 0.31 -0.23000002 0.57 -0.53 0.57 c -0.30000007 0 -0.53000003 -0.26 -0.53000003 -0.57 c 0 -0.3 0.22999996 -0.56 0.53000003 -0.56 c 0.29999995 0 0.53 0.26 0.53 0.56 Z "/>
        </symbol>
        <symbol id="g1A8E38081AD787A502FEE74A7655645C" overflow="visible">
            <path d="M 0 0m 2.4710002 2.4710002 c 0.46899986 0.18899989 0.9169998 0.602 0.9169998 1.197 c 0 0.31499982 -0.16799998 0.5669999 -0.49699998 0.7490001 c -0.273 0.1539998 -0.58099985 0.23099995 -0.924 0.23099995 c -0.34299994 0 -0.64399993 -0.07000017 -0.903 -0.21700001 c -0.315 -0.17500019 -0.476 -0.42000008 -0.476 -0.73500013 c 0 -0.26600003 0.13300002 -0.39899993 0.39200002 -0.39899993 c 0.21700001 0 0.37800002 0.16799998 0.37800002 0.385 c 0 0.21700001 -0.11199999 0.34299994 -0.329 0.37799978 c 0.20299995 0.21700001 0.50399995 0.329 0.91700006 0.329 c 0.45499992 0 0.714 -0.27299976 0.714 -0.7209997 c 0 -0.32900023 -0.09100008 -0.595 -0.26600003 -0.80500007 c -0.1960001 -0.23100019 -0.33599997 -0.26600003 -0.742 -0.29400015 c -0.18900001 -0.013999939 -0.31500006 0.0069999695 -0.31500006 -0.1329999 c 0 -0.08400011 0.07000005 -0.12599993 0.20300007 -0.12599993 h 0.37099993 c 0.602 0 0.89600015 -0.45500016 0.89600015 -1.0850002 c 0 -0.616 -0.27999997 -1.085 -0.86800015 -1.085 c -0.5109999 0 -0.88199997 0.14 -1.1129999 0.42700005 c 0.24499995 0.027999997 0.371 0.16799998 0.371 0.413 c 0 0.23100007 -0.17499995 0.40600002 -0.40600002 0.40600002 c -0.273 0 -0.413 -0.13999999 -0.413 -0.427 c 0 -0.35700005 0.18199998 -0.64400005 0.53900003 -0.84700006 c 0.301 -0.16800001 0.64399993 -0.252 1.036 -0.252 c 0.42700005 0 0.7980001 0.119 1.1200001 0.357 c 0.3499999 0.259 0.52499986 0.595 0.52499986 1.008 c 0 0.651 -0.5669999 1.0990001 -1.1269999 1.2460002 Z "/>
        </symbol>
        <symbol id="g9935DBACBF9E6EF6625176E2E55D45AC" overflow="visible">
            <path d="M 0 0m 5.5699997 0.56 c 0 0.31 -0.25 0.56 -0.55999994 0.56 c -0.3199997 0 -0.55999994 -0.24000001 -0.55999994 -0.56 c 0 -0.31 0.25 -0.56 0.55999994 -0.56 c 0.32000017 0 0.55999994 0.24 0.55999994 0.56 Z m -3.8799996 3.88 c 0 0.2999997 -0.26 0.55999994 -0.55999994 0.55999994 c -0.32 0 -0.56 -0.24000025 -0.56 -0.55999994 c 0 -0.30999994 0.25 -0.5600002 0.56 -0.5600002 c 0.31999993 0 0.55999994 0.24000001 0.55999994 0.5600002 Z m 1.9399999 -1.94 c 0 0.29999995 -0.26 0.55999994 -0.55999994 0.55999994 c -0.29999995 0 -0.55999994 -0.26 -0.55999994 -0.55999994 c 0 -0.29999995 0.26 -0.56000006 0.55999994 -0.56000006 c 0.29999995 0 0.55999994 0.2600001 0.55999994 0.56000006 Z "/>
        </symbol>
        <symbol id="g1B0BB0731DB6059F906A26372A63528A" overflow="visible">
            <path d="M 0 0m 5.98 12.42 v 2.5299997 h -1.0799999 v -2.5299997 c 0 -1.54 -0.1800003 -3.0900002 -0.5300002 -4.6600003 c -0.6199999 -2.8199997 -1.9099998 -5.92 -3.7399998 -7.3199997 c -0.06999999 -0.04000002 -0.110000014 -0.099999994 -0.110000014 -0.19 c 0 -0.17 0.07999998 -0.25 0.25 -0.25 c 0.050000012 0 0.100000024 0.02 0.13999999 0.049999997 c 0.87 0.65999997 1.6999999 1.65 2.48 2.98 c 1.3800001 2.36 2.5900002 5.8900003 2.5900002 9.39 Z "/>
        </symbol>
        <symbol id="g52108651150A82C87B3A63DC2B6EB0B1" overflow="visible">
            <path d="M 0 0m 4.9 0 h 1.0799999 v 4.98 h -1.0799999 Z "/>
        </symbol>
        <symbol id="g633758CF12323028C71F3A7F00D991AE" overflow="visible">
            <path d="M 0 0m 4.9 0 h 1.0799999 v 2.53 c 0 3.28 -1.1100001 6.67 -2.3500001 8.97 c -0.81999993 1.5099993 -1.7299999 2.6499996 -2.7199998 3.3999996 c -0.03999996 0.029999733 -0.089999974 0.05000019 -0.13999999 0.05000019 c -0.17000002 0 -0.25 -0.07999992 -0.25 -0.25 c 0 -0.07999992 0.030000031 -0.15000057 0.100000024 -0.19999981 c 0.80999994 -0.6100006 1.5399998 -1.5799999 2.21 -2.9000006 c 1.19 -2.3599997 2.0700002 -5.6699996 2.0700002 -9.07 Z "/>
        </symbol>
    </defs>
</svg>
